<?xml version="1.0" standalone="no"?>
<!DOCTYPE svg PUBLIC "-//W3C//DTD SVG 1.1//EN" "http://www.w3.org/Graphics/SVG/1.1/DTD/svg11.dtd" >
<svg xmlns="http://www.w3.org/2000/svg">
<metadata></metadata>
<defs>
<font id="genericmedium" horiz-adv-x="688" >
<font-face units-per-em="2048" ascent="1593" descent="-455" />
<missing-glyph horiz-adv-x="417" />
<glyph horiz-adv-x="2048" />
<glyph horiz-adv-x="2048" />
<glyph unicode="&#xd;" horiz-adv-x="2048" />
<glyph unicode=" "  horiz-adv-x="417" />
<glyph unicode="&#x09;" horiz-adv-x="417" />
<glyph unicode="&#xa0;" horiz-adv-x="417" />
<glyph unicode="!" horiz-adv-x="667" d="M162 0v334h342v-334h-342zM184 1030v563h299v-563l-45 -530h-211z" />
<glyph unicode="&#x22;" horiz-adv-x="1032" d="M113 1546h342l-103 -676h-137zM578 1546h342l-103 -676h-137z" />
<glyph unicode="#" horiz-adv-x="1290" d="M61 371v186h244l51 311h-213v187h244l53 327h187l-54 -327h265l53 327h186l-53 -327h205v-187h-236l-51 -311h205v-186h-236l-59 -371h-186l59 371h-264l-60 -371h-186l59 371h-213zM492 557h264l51 311h-264z" />
<glyph unicode="$" horiz-adv-x="1374" d="M68 420l303 43q26 -113 86.5 -170.5t165.5 -69.5v430l-99 21q-196 41 -296.5 147.5t-100.5 296.5q0 191 136.5 317.5t359.5 143.5v193h135v-193q400 -32 504 -395l-291 -58q-32 88 -81.5 141.5t-131.5 71.5v-403l96 -21q106 -22 182 -54.5t134.5 -83.5t87 -126t28.5 -176 q0 -207 -139 -348t-389 -158v-260h-135v260q-479 33 -555 451zM424 1161q0 -89 46.5 -131.5t147.5 -64.5h5v381q-100 -11 -149.5 -61.5t-49.5 -123.5zM758 223q106 12 163.5 64t57.5 143q0 77 -47 123.5t-154 67.5l-20 4v-402z" />
<glyph unicode="%" horiz-adv-x="1660" d="M72 1192q0 179 97 282t245 103q157 0 243 -97t86 -288q0 -184 -93 -284.5t-244 -100.5q-157 0 -245.5 99t-88.5 286zM201 -29l1044 1606h209l-1042 -1606h-211zM285 1192q0 -120 30.5 -172.5t92.5 -52.5q59 0 88.5 51.5t29.5 173.5q0 227 -120 227q-60 0 -90.5 -52 t-30.5 -175zM918 356q0 179 97 282t245 103q157 0 243 -97t86 -288q0 -184 -93.5 -284.5t-244.5 -100.5q-157 0 -245 99t-88 286zM1130 356q0 -120 30.5 -173.5t92.5 -53.5q119 0 119 227q0 228 -121 228t-121 -228z" />
<glyph unicode="&#x26;" horiz-adv-x="1474" d="M78 414q0 81 20.5 146t63 117t94.5 91.5t127 81.5q-83 92 -121.5 172.5t-38.5 183.5q0 168 124.5 276.5t324.5 108.5q111 0 196.5 -29.5t136 -80t76 -111.5t25.5 -129q0 -126 -73.5 -221.5t-229.5 -190.5l254 -258q33 106 33 258h264q0 -251 -99 -460l193 -197l-203 -207 l-166 170q-185 -168 -448 -168q-262 0 -407.5 125t-145.5 322zM379 446q0 -100 68.5 -162.5t189.5 -62.5q153 0 266 94l-360 371q-90 -59 -127 -114.5t-37 -125.5zM504 1223q0 -65 30 -111.5t109 -122.5q98 62 143 119.5t45 118.5q0 65 -43 108t-116 43q-79 0 -123.5 -44.5 t-44.5 -110.5z" />
<glyph unicode="'" horiz-adv-x="567" d="M113 1546h342l-103 -676h-137z" />
<glyph unicode="(" d="M137 649q0 81 7.5 159t18 141.5t31 131t36 114t43.5 104t44 88t47.5 79.5t42.5 65t41 57.5t33 45.5h193q-31 -52 -42.5 -71.5t-47.5 -89t-55 -118t-49 -136t-45.5 -167t-27.5 -186.5t-12 -217t12 -216.5t27.5 -185.5t45.5 -166.5t49 -136.5t55 -118t48 -89t42 -71h-193 q-32 40 -52.5 67.5t-60.5 88.5t-67 114.5t-60.5 136.5t-54 165.5t-35 190t-14.5 220.5z" />
<glyph unicode=")" d="M14 -334q31 52 42.5 71.5t47.5 89t55 118t49 136t45.5 167t27.5 186.5t12 217q0 109 -12 215t-28.5 187t-44.5 166t-49 137.5t-54.5 117.5t-48.5 90l-42 70h193q32 -40 52 -67t60.5 -88.5t67.5 -115t61 -137t55 -165.5t35.5 -190t14.5 -220q0 -81 -7.5 -159t-18 -141.5 t-31 -130.5t-36 -113.5t-44 -104t-44 -88t-47.5 -79.5t-43 -65.5t-41.5 -58t-33.5 -45.5h-193z" />
<glyph unicode="*" horiz-adv-x="958" d="M37 1192l65 190l295 -137l9 6l-29 342h205l-31 -344l6 -4l305 141l62 -194l-314 -90v-8l232 -258l-172 -123l-187 295h-8l-188 -289l-172 123l235 258l-2 4z" />
<glyph unicode="+" horiz-adv-x="1228" d="M133 549v242h359v364h245v-364h359v-242h-359v-377h-245v377h-359z" />
<glyph unicode="," horiz-adv-x="600" d="M86 -258q101 52 145 109t48 149h-150v334h342v-268q0 -159 -73.5 -269t-243.5 -176z" />
<glyph unicode="-" horiz-adv-x="903" d="M106 479v271h693v-271h-693z" />
<glyph unicode="." horiz-adv-x="600" d="M129 0v334h342v-334h-342z" />
<glyph unicode="/" horiz-adv-x="878" d="M-76 -334l723 1968h213l-721 -1968h-215z" />
<glyph unicode="0" horiz-adv-x="1470" d="M121 770q0 394 163 598.5t453 204.5q297 0 455 -199t158 -604q0 -398 -162.5 -600.5t-452.5 -202.5q-614 0 -614 803zM453 770q0 -287 70.5 -418t213.5 -131q137 0 209 129t72 420q0 284 -71.5 416.5t-211.5 132.5q-141 0 -211.5 -129t-70.5 -420z" />
<glyph unicode="1" horiz-adv-x="976" d="M53 1217l494 329h225v-1546h-311v1165l-275 -178z" />
<glyph unicode="2" horiz-adv-x="1310" d="M119 0v240q401 367 448 411q198 188 260 289q52 86 52 172q0 97 -57 151t-158 54q-228 0 -246 -262l-2 -31l-293 29v22q0 75 22 147t67.5 135.5t110 111.5t155.5 76t198 28q246 0 379 -121t133 -309q0 -76 -13.5 -139t-46.5 -126t-77.5 -120.5t-119 -130.5t-158.5 -148.5 t-206 -182.5q-5 -4 -7 -6t-6 -5t-7 -6v-7h657v-272h-1085z" />
<glyph unicode="3" horiz-adv-x="1329" d="M78 453l307 26q47 -258 279 -258q111 0 182.5 62t71.5 161q0 108 -71 168t-192 60h-145v246h137q105 0 168.5 51t63.5 151q0 93 -59 146t-158 53q-109 0 -174 -63.5t-78 -184.5l-295 35q10 100 51.5 185t110.5 148.5t172 99.5t229 36q238 0 374 -117t136 -295 q0 -256 -260 -344v-8q142 -31 222.5 -130.5t80.5 -246.5q0 -202 -155.5 -334.5t-416.5 -132.5q-134 0 -241 37.5t-177.5 104.5t-111.5 154t-51 190z" />
<glyph unicode="4" horiz-adv-x="1343" d="M63 328v190l629 1028h373v-954h201v-264h-201v-328h-301v328h-701zM373 592h395v661h-10l-29 -69q-46 -112 -92 -183z" />
<glyph unicode="5" horiz-adv-x="1320" d="M78 412l297 32q23 -122 96.5 -174.5t171.5 -52.5q116 0 188 74.5t72 206.5q0 127 -69.5 195.5t-198.5 68.5q-152 0 -240 -111l-258 90l146 805h860v-280h-647l-66 -365h4q60 55 131.5 80t169.5 25q137 0 244 -55.5t171 -170t64 -272.5q0 -245 -156 -392t-415 -147 q-138 0 -243.5 35t-170.5 98t-101.5 139.5t-49.5 170.5z" />
<glyph unicode="6" horiz-adv-x="1398" d="M121 696q0 219 47 388t132 275t200.5 160t257.5 54q111 0 199.5 -29t149.5 -82t100.5 -119t62.5 -149l-289 -64q-30 102 -87.5 148.5t-145.5 46.5q-140 0 -222 -127.5t-92 -361.5h4q64 83 150.5 125.5t216.5 42.5q101 0 187.5 -30t155 -89t107.5 -156t39 -221 q0 -109 -40.5 -207t-112.5 -171.5t-180.5 -117t-237.5 -43.5q-137 0 -245.5 42t-189 128.5t-124 227.5t-43.5 329zM463 489q0 -123 72.5 -195.5t191.5 -72.5q112 0 186 73t74 195t-71 195.5t-193 73.5q-117 0 -188.5 -73t-71.5 -196z" />
<glyph unicode="7" horiz-adv-x="1179" d="M68 1266v280h1054v-227l-616 -1319h-332l608 1266h-714z" />
<glyph unicode="8" horiz-adv-x="1374" d="M104 428q0 141 77.5 239t193.5 138v6q-221 96 -221 344q0 185 143.5 305.5t390.5 120.5q248 0 391.5 -118.5t143.5 -303.5q0 -125 -61.5 -214t-164.5 -134v-6q120 -40 197.5 -136t77.5 -239q0 -210 -156 -336.5t-428 -126.5q-273 0 -428.5 124.5t-155.5 336.5zM422 449 q0 -111 73.5 -175.5t192.5 -64.5q120 0 193 64.5t73 175.5t-73.5 176t-192.5 65t-192.5 -65t-73.5 -176zM453 1133q0 -100 66.5 -154.5t168.5 -54.5t169 55t67 154q0 100 -67 155t-169 55q-104 0 -169.5 -54.5t-65.5 -155.5z" />
<glyph unicode="9" horiz-adv-x="1400" d="M106 1049q0 108 38.5 203t110 167.5t183 115t248.5 42.5q131 0 238.5 -45t187.5 -134t124 -231t44 -327q0 -438 -165.5 -654.5t-473.5 -216.5q-222 0 -355.5 98t-170.5 279l286 57q30 -99 89.5 -141.5t150.5 -42.5q152 0 231.5 117.5t79.5 378.5h-6q-59 -78 -141 -121 t-203 -43q-140 0 -251 57t-178 171.5t-67 269.5zM420 1055q0 -122 71 -194.5t189 -72.5q111 0 185.5 75t74.5 192q0 122 -71 195t-189 73q-114 0 -187 -72.5t-73 -195.5z" />
<glyph unicode=":" horiz-adv-x="600" d="M129 0v334h342v-334h-342zM129 750v333h342v-333h-342z" />
<glyph unicode=";" horiz-adv-x="600" d="M90 -287q99 61 140.5 123.5t45.5 163.5h-147v334h342v-264q0 -169 -68.5 -285.5t-234.5 -196.5zM129 750v333h342v-333h-342z" />
<glyph unicode="&#x3c;" horiz-adv-x="1228" d="M133 537v196l963 420v-235l-676 -281l676 -279v-243z" />
<glyph unicode="=" horiz-adv-x="1228" d="M133 354v215h963v-215h-963zM133 768v215h963v-215h-963z" />
<glyph unicode="&#x3e;" horiz-adv-x="1228" d="M133 115v235l676 281l-676 278v244l963 -420v-196z" />
<glyph unicode="?" horiz-adv-x="1163" d="M20 1151q10 90 50.5 170t109 145.5t173.5 103.5t233 38q254 0 391 -114t137 -314q0 -74 -16.5 -132t-53.5 -107t-78 -85.5t-108 -85.5q-105 -77 -133.5 -111.5t-28.5 -97.5v-61h-278l-2 94q-2 78 18 131t57 90.5t115 93.5q112 80 152.5 130.5t40.5 127.5q0 81 -58 130 t-161 49q-118 0 -180.5 -60t-86.5 -182zM385 0v334h342v-334h-342z" />
<glyph unicode="@" horiz-adv-x="2195" d="M125 530q0 225 79 418t216.5 326.5t328 209t408.5 75.5q216 0 392.5 -67.5t290.5 -183.5t175.5 -269t61.5 -326q0 -151 -44 -276t-119 -205.5t-172.5 -124.5t-205.5 -44q-117 0 -190 41.5t-103 135.5h-8q-58 -81 -129.5 -118.5t-177.5 -37.5q-153 0 -247.5 105.5 t-94.5 297.5q0 174 59.5 313t169.5 218.5t252 79.5q177 0 254 -137h6l25 110h262l-111 -651q-14 -88 11.5 -133t107.5 -45q114 0 201.5 133t87.5 327q0 210 -91 371t-266.5 252.5t-412.5 91.5q-184 0 -342 -68t-266.5 -185t-170 -276.5t-61.5 -340.5q0 -189 61.5 -343 t168.5 -254.5t251.5 -155t311.5 -54.5q184 0 328.5 42.5t267.5 133.5l75 -109q-89 -68 -178 -111t-221.5 -71t-298.5 -28q-204 0 -379 69t-299 190.5t-194 295.5t-70 378zM866 487q0 -200 158 -200q81 0 140 63.5t85.5 153t26.5 188.5q0 94 -39.5 146.5t-118.5 52.5 q-76 0 -134.5 -57.5t-88 -148.5t-29.5 -198z" />
<glyph unicode="A" horiz-adv-x="1562" d="M41 0l543 1546h393l545 -1546h-332l-121 358h-590l-121 -358h-317zM569 625h410l-131 389q-23 67 -47 162l-19 73h-18l-19 -71q-4 -14 -12 -45.5t-16 -62t-17 -56.5z" />
<glyph unicode="B" horiz-adv-x="1480" d="M168 0v1546h680q232 0 359.5 -105t127.5 -276q0 -259 -262 -346v-6q138 -27 228 -117t90 -235q0 -212 -148 -336.5t-407 -124.5h-668zM489 250h320q264 0 264 213q0 102 -68.5 154.5t-187.5 52.5h-328v-420zM489 915h297q240 0 240 193q0 96 -58 143t-188 47h-291v-383z " />
<glyph unicode="C" horiz-adv-x="1568" d="M100 762q0 179 53 330.5t148 258.5t232 166.5t301 59.5q137 0 251 -35.5t193.5 -98t131.5 -144t75 -177.5l-314 -63q-93 246 -340 246q-178 0 -283.5 -136.5t-105.5 -392.5q0 -265 107.5 -401.5t281.5 -136.5q77 0 139 22.5t103 62.5t67.5 87t41.5 102l323 -63 q-24 -96 -73.5 -178.5t-128.5 -152.5t-200 -110.5t-272 -40.5q-346 0 -538.5 209.5t-192.5 585.5z" />
<glyph unicode="D" horiz-adv-x="1581" d="M168 0v1546h502q116 0 217.5 -17.5t193.5 -55t165 -99t126.5 -145t82 -198.5t28.5 -255q0 -383 -213 -579.5t-600 -196.5h-502zM492 270h178q115 0 199.5 25t148 82.5t95.5 157.5t32 245q0 260 -119 377t-356 117h-178v-1004z" />
<glyph unicode="E" horiz-adv-x="1331" d="M168 0v1546h1032v-278h-708v-357h616v-272h-616v-360h741v-279h-1065z" />
<glyph unicode="F" horiz-adv-x="1230" d="M168 0v1546h993v-278h-667v-402h565v-272h-565v-594h-326z" />
<glyph unicode="G" horiz-adv-x="1642" d="M100 758q0 189 55.5 343.5t154 258.5t235.5 160.5t299 56.5q132 0 242 -35t186.5 -96.5t126.5 -138t76 -166.5l-310 -68q-46 118 -123 180t-204 62q-179 0 -290.5 -139t-111.5 -400q0 -259 109 -401t286 -142q92 0 162 29t111 78.5t61.5 109t20.5 125.5v23h-359v244h656 v-842h-252l-23 176h-10q-64 -101 -165.5 -155t-258.5 -54q-148 0 -271 52t-213 150t-140 249t-50 340z" />
<glyph unicode="H" horiz-adv-x="1624" d="M168 0v1546h326v-616h636v616h328v-1546h-328v651h-636v-651h-326z" />
<glyph unicode="I" horiz-adv-x="661" d="M168 0v1546h326v-1546h-326z" />
<glyph unicode="J" horiz-adv-x="1312" d="M57 414l312 35q17 -113 76 -164.5t161 -51.5q117 0 170 57.5t53 180.5v1075h326v-1052q0 -88 -16 -162.5t-55 -143t-100 -116.5t-156.5 -76.5t-219.5 -28.5q-251 0 -390.5 120.5t-160.5 326.5z" />
<glyph unicode="K" horiz-adv-x="1529" d="M168 0v1546h321v-704l586 704h359l-539 -643l594 -903h-387l-432 653l-181 -215v-438h-321z" />
<glyph unicode="L" horiz-adv-x="1261" d="M168 0v1546h326v-1263h704v-283h-1030z" />
<glyph unicode="M" horiz-adv-x="2017" d="M168 0v1546h453l346 -958q9 -26 34 -127q10 -31 13 -55h10q3 26 12 55q20 83 37 129l346 956h430v-1546h-315v1120h-10q-5 -31 -15 -71q-23 -99 -43 -156l-327 -893h-271l-327 895q-19 51 -43 156q-11 45 -15 69h-10v-1120h-305z" />
<glyph unicode="N" horiz-adv-x="1628" d="M168 0v1546h360l545 -891q23 -39 55 -110l23 -51h8v1052h301v-1546h-344l-557 905q-42 69 -59 113l-21 51h-8v-1069h-303z" />
<glyph unicode="O" horiz-adv-x="1669" d="M100 772q0 243 89.5 425t256.5 281t390 99q342 0 537.5 -216t195.5 -589q0 -369 -199.5 -587t-538.5 -218q-342 0 -536.5 216t-194.5 589zM442 772q0 -263 106 -397.5t286 -134.5t286.5 134.5t106.5 397.5q0 266 -106 399.5t-287 133.5q-180 0 -286 -135t-106 -398z" />
<glyph unicode="P" horiz-adv-x="1409" d="M168 0v1546h590q260 0 418.5 -134t158.5 -382q0 -243 -159 -380.5t-426 -137.5h-256v-512h-326zM494 776h219q142 0 221.5 61t79.5 189q0 130 -79 193t-218 63h-223v-506z" />
<glyph unicode="Q" horiz-adv-x="1677" d="M104 772q0 374 197.5 589.5t538.5 215.5q342 0 537.5 -215t195.5 -590q0 -402 -254 -625l141 -174l-192 -155l-160 198q-128 -49 -270 -49q-343 0 -538.5 215t-195.5 590zM457 772q0 -270 103 -409.5t278 -139.5q38 0 96 10l-137 170l190 156l146 -180q88 136 88 393 q0 269 -103.5 408t-279.5 139q-175 0 -278 -139t-103 -408z" />
<glyph unicode="R" horiz-adv-x="1468" d="M168 0v1546h623q265 0 411 -120.5t146 -346.5q0 -152 -76 -261t-215 -171v-4l350 -643h-358l-308 559h-247v-559h-326zM494 831h241q62 0 108.5 10t87 34t62 70.5t21.5 113.5q0 130 -74.5 181.5t-212.5 51.5h-233v-461z" />
<glyph unicode="S" horiz-adv-x="1449" d="M66 410l325 51q35 -110 123 -170t213 -60q139 0 214 53t75 146q0 71 -51 117t-179 74l-225 49q-420 91 -420 444q-1 98 38.5 182.5t113 147.5t184.5 99t246 36q256 0 409 -108t199 -293l-315 -56q-19 45 -40.5 77t-55 61.5t-83.5 45t-116 15.5q-128 0 -190 -48.5 t-62 -121.5q0 -75 53 -120.5t178 -72.5l232 -49q222 -48 323 -160t101 -284q0 -104 -38 -192.5t-113 -157.5t-200 -108.5t-286 -39.5q-270 0 -444.5 128t-208.5 315z" />
<glyph unicode="T" horiz-adv-x="1345" d="M59 1272v274h1227v-274h-450v-1272h-326v1272h-451z" />
<glyph unicode="U" horiz-adv-x="1564" d="M158 571v975h327v-977q0 -155 71.5 -237t229.5 -82q299 0 299 319v977h322v-975q0 -136 -34.5 -243.5t-106.5 -190t-193.5 -126.5t-286.5 -44q-168 0 -291 43.5t-196 125t-107 189.5t-34 246z" />
<glyph unicode="V" horiz-adv-x="1501" d="M35 1546h338l327 -991q20 -63 43 -162q11 -45 15 -69h8q7 39 14 69q18 76 45 162l326 991h315l-530 -1546h-371z" />
<glyph unicode="W" horiz-adv-x="2174" d="M49 1546h328l268 -1181l303 1181h305l301 -1167l269 1167h303l-365 -1546h-399l-272 1065l-271 -1065h-403z" />
<glyph unicode="X" horiz-adv-x="1445" d="M41 0l500 788l-473 758h354l307 -506l309 506h338l-477 -760l498 -786h-361l-323 528l-324 -528h-348z" />
<glyph unicode="Y" horiz-adv-x="1406" d="M25 1546h348l348 -622l338 622h323l-505 -891v-655h-328v639z" />
<glyph unicode="Z" horiz-adv-x="1392" d="M92 0v213l791 1061h-750v272h1151v-219l-790 -1055h800v-272h-1202z" />
<glyph unicode="[" d="M178 -334v1968h488v-176h-250v-1616h250v-176h-488z" />
<glyph unicode="\" horiz-adv-x="880" d="M12 1634h215l723 -1968h-217z" />
<glyph unicode="]" d="M25 -158h245v1616h-245v176h487v-1968h-487v176z" />
<glyph unicode="_" horiz-adv-x="1085" d="M61 -250h963v-219h-963v219z" />
<glyph unicode="`" horiz-adv-x="1024" d="M256 1593h332l186 -342h-242z" />
<glyph unicode="a" horiz-adv-x="1251" d="M86 309q0 91 35.5 158.5t89.5 105.5t133 61.5t149.5 30.5t155.5 7q27 0 79 -2t79 -2q0 60 -6.5 97.5t-26 70.5t-58.5 48t-100 15q-164 0 -196 -137l-293 61q18 82 69 145t121 99.5t148 55t160 18.5q241 0 363 -109.5t122 -347.5q0 -45 -0.5 -165t-0.5 -183t2.5 -159.5 t8.5 -176.5h-295l-8 143q-62 -92 -150 -131t-208 -39q-159 0 -266 90t-107 246zM397 328q0 -64 46 -99.5t112 -35.5q118 0 186 74.5t68 193.5v20q-24 0 -70.5 1t-70.5 1q-51 0 -90 -4.5t-84.5 -19t-71 -47.5t-25.5 -84z" />
<glyph unicode="b" horiz-adv-x="1355" d="M152 0v1593h317v-645q109 187 332 187q95 0 173 -30t131.5 -81.5t90 -123.5t53.5 -153.5t17 -173.5q0 -272 -134.5 -436t-361.5 -164q-69 0 -125.5 14.5t-95.5 40t-62 48t-45 51.5v-127h-290zM455 555q0 -178 64 -264t177 -86q117 0 182.5 90.5t65.5 261.5 q0 173 -64.5 256.5t-174.5 83.5q-119 0 -184.5 -87t-65.5 -255z" />
<glyph unicode="c" horiz-adv-x="1216" d="M86 547q0 99 22.5 187.5t69.5 162.5t114 128t160.5 84t204.5 30q107 0 197.5 -30.5t150.5 -81t97 -112t47 -127.5l-305 -51q-23 75 -68.5 117.5t-132.5 42.5q-112 0 -176 -88.5t-64 -253.5q0 -172 64 -258t178 -86q159 0 215 172l299 -47q-43 -166 -171 -266.5 t-347 -100.5q-274 0 -414.5 155.5t-140.5 422.5z" />
<glyph unicode="d" horiz-adv-x="1355" d="M90 547q0 168 56 299t173.5 210t282.5 79q108 0 178 -41t109 -95v594h315v-1593h-293v137q-119 -162 -352 -162q-213 0 -341 153.5t-128 418.5zM410 551q0 -160 60 -253t183 -93q124 0 186 93.5t62 252.5t-60 252.5t-179 93.5q-125 0 -188.5 -93.5t-63.5 -252.5z" />
<glyph unicode="e" horiz-adv-x="1247" d="M86 553q0 169 65.5 301t194 208.5t301.5 76.5q269 -1 405 -177q131 -170 130 -469v-22h-789q8 -117 79 -189.5t181 -72.5q83 0 138.5 31.5t99.5 99.5l258 -82q-57 -131 -185.5 -210t-320.5 -79q-248 0 -402.5 160t-154.5 424zM395 674h467q-6 111 -65 175t-162 64 q-105 0 -167 -65.5t-73 -173.5z" />
<glyph unicode="f" horiz-adv-x="811" d="M43 887v223h172v84q0 208 100 310t308 102q42 0 112 -9l49 -6l-20 -254q-38 9 -90 9q-83 0 -113.5 -34.5t-30.5 -121.5v-80h230v-223h-230v-887h-315v887h-172z" />
<glyph unicode="g" horiz-adv-x="1355" d="M90 563q0 258 136.5 415t365.5 157q219 0 319 -160v135h293v-999q0 -142 -32 -248t-101 -183t-183 -116t-272 -39q-208 0 -332.5 80.5t-168.5 216.5l274 92q32 -80 90 -118t150 -38q262 0 262 265v143q-105 -164 -334 -164q-117 0 -208 45t-146.5 123.5t-84 178 t-28.5 214.5zM410 567q0 -155 62 -246.5t183 -91.5q120 0 183 91.5t63 248.5q0 152 -63 245t-179 93q-123 0 -186 -93t-63 -247z" />
<glyph unicode="h" horiz-adv-x="1333" d="M152 0v1593h315v-649q43 84 127 138.5t209 54.5q196 0 292.5 -115.5t96.5 -312.5v-709h-315v649q0 67 -17 115t-46.5 72t-61 34.5t-68.5 10.5q-44 0 -80.5 -13t-68.5 -42.5t-50 -85t-18 -132.5v-608h-315z" />
<glyph unicode="i" horiz-adv-x="616" d="M147 1288v293h324v-293h-324zM152 0v1110h315v-1110h-315z" />
<glyph unicode="j" horiz-adv-x="616" d="M-90 -451l20 248q45 -10 82 -10q140 0 140 156v1167h315v-1157q0 -202 -103.5 -312t-300.5 -110q-81 0 -153 18zM147 1288v293h324v-293h-324z" />
<glyph unicode="k" horiz-adv-x="1259" d="M152 0v1593h313v-917l377 434h354l-395 -438l438 -672h-358l-301 461l-115 -127v-334h-313z" />
<glyph unicode="l" horiz-adv-x="616" d="M152 0v1593h315v-1593h-315z" />
<glyph unicode="m" horiz-adv-x="2058" d="M152 0v1110h294v-180q116 205 357 205q274 0 356 -222q124 222 369 222q196 0 292.5 -115.5t96.5 -312.5v-707h-315v649q0 67 -17 114.5t-46 71.5t-60 34t-68 10q-43 0 -79.5 -13t-69 -42t-51.5 -84.5t-19 -131.5v-608h-315v649q0 67 -17 114.5t-46.5 71.5t-61 34 t-68.5 10q-44 0 -80.5 -13t-68.5 -42t-50 -84t-18 -132v-608h-315z" />
<glyph unicode="n" horiz-adv-x="1333" d="M152 0v1110h294v-180q116 205 357 205q196 0 292.5 -115.5t96.5 -312.5v-707h-315v647q0 67 -17 115t-46.5 72t-61 34.5t-68.5 10.5q-44 0 -80.5 -13t-68.5 -42.5t-50 -85t-18 -132.5v-606h-315z" />
<glyph unicode="o" horiz-adv-x="1302" d="M86 555q0 169 65 299.5t196 207.5t310 77q180 0 308.5 -77t191 -207.5t62.5 -299.5q0 -168 -66 -299.5t-197.5 -209t-310.5 -77.5q-267 0 -413 162t-146 424zM403 555q0 -161 62.5 -252.5t187.5 -91.5q124 0 185 91.5t61 252.5q0 160 -62 252t-186 92q-125 0 -186.5 -92 t-61.5 -252z" />
<glyph unicode="p" horiz-adv-x="1355" d="M152 -455v1565h290v-172q30 43 61.5 75.5t75 61.5t101 44.5t127.5 15.5q116 0 206 -45.5t144 -124t81.5 -178t27.5 -214.5q0 -273 -142.5 -436.5t-371.5 -163.5q-103 0 -176 37.5t-109 83.5v-549h-315zM455 555q0 -178 64 -264t177 -86q117 0 182.5 90.5t65.5 261.5 q0 173 -63 256.5t-172 83.5q-120 0 -187 -87t-67 -255z" />
<glyph unicode="q" horiz-adv-x="1355" d="M90 547q0 168 56 299t172.5 210t279.5 79q217 0 313 -154v129h293v-1565h-317v586q-25 -33 -51.5 -58.5t-64.5 -49t-90.5 -36t-115.5 -12.5q-224 0 -349.5 156t-125.5 416zM410 551q0 -159 61.5 -252.5t181.5 -93.5q124 0 186 95t62 253q0 157 -62 250.5t-180 93.5 q-126 0 -187.5 -93t-61.5 -253z" />
<glyph unicode="r" horiz-adv-x="884" d="M152 0v1110h294v-205h9q30 72 70.5 119.5t91.5 69.5q51 24 103 30q32 4 68 4q23 0 48 -2l-15 -307q-37 6 -100 6q-152 0 -211 -104q-43 -76 -43 -221v-500h-315z" />
<glyph unicode="s" horiz-adv-x="1165" d="M78 293l289 45q53 -145 217 -145q188 0 188 110q0 46 -28.5 71.5t-110.5 41.5l-170 33q-178 35 -262 113t-84 224q0 152 127.5 252.5t337.5 100.5q205 0 325 -83t154 -225l-287 -47q-40 131 -194 131q-81 0 -122.5 -27.5t-41.5 -72.5q0 -46 34 -71t111 -39l193 -37 q170 -32 245.5 -109.5t75.5 -214.5q0 -172 -126.5 -274.5t-370.5 -102.5q-218 0 -343.5 84.5t-156.5 241.5z" />
<glyph unicode="t" horiz-adv-x="849" d="M41 887v223h182l15 299h282v-299h236v-223h-230v-516q0 -83 36 -116.5t112 -33.5q24 0 53.5 2t34.5 2l14 -223q-122 -27 -233 -27q-181 0 -255.5 90t-74.5 281l2 541h-174z" />
<glyph unicode="u" horiz-adv-x="1312" d="M141 406v704h316v-649q0 -234 180 -234q104 0 156.5 71t52.5 198v614h315v-1110h-297v190q-24 -57 -64 -103t-112 -80t-162 -34q-101 0 -176.5 32.5t-120 92t-66.5 136.5t-22 172z" />
<glyph unicode="v" horiz-adv-x="1173" d="M20 1110h332l191 -590q19 -59 37 -145q9 -34 12 -66h10q11 53 14 66q16 80 37 143l191 592h309l-395 -1110h-342z" />
<glyph unicode="w" horiz-adv-x="1763" d="M29 1110h311l137 -567q15 -63 33 -178q8 -62 10 -91h10q3 37 13 91q13 81 39 178l153 567h303l154 -567q18 -70 39 -195l16 -102h10q2 42 13 104q17 126 33 193l135 567h299l-295 -1110h-379l-139 530q-16 58 -29 152l-10 72h-13l-10 -72q-11 -79 -31 -152l-141 -530 h-371z" />
<glyph unicode="x" horiz-adv-x="1187" d="M31 0l393 563l-377 547h359l202 -305l203 305h322l-373 -535l397 -575h-354l-230 338l-225 -338h-317z" />
<glyph unicode="y" horiz-adv-x="1171" d="M20 1110h330l203 -575q25 -78 35 -140l8 -59h10q4 39 10 61q8 55 37 142l193 571h307l-573 -1565h-306l160 443z" />
<glyph unicode="z" horiz-adv-x="1110" d="M94 0v211l549 651h-532v248h899v-209l-547 -651h559v-250h-928z" />
<glyph unicode="{" horiz-adv-x="706" d="M66 543v211h63q75 0 109.5 42t27.5 134l-26 358q-7 98 16.5 166.5t76.5 107t122 55.5t163 17h74v-174h-51q-97 0 -130 -37t-28 -135l17 -358q6 -121 -34.5 -183.5t-143.5 -91.5v-8q98 -23 140.5 -86.5t37.5 -179.5l-17 -369q-5 -96 28.5 -134t129.5 -38h51v-174h-78 q-95 0 -164 17t-120.5 55.5t-74 107t-15.5 166.5l26 365q12 166 -139 166h-61z" />
<glyph unicode="|" horiz-adv-x="581" d="M188 -334v1968h203v-1968h-203z" />
<glyph unicode="}" horiz-adv-x="706" d="M6 -160h51q97 0 130 37t28 135l-16 359q-6 121 34.5 183t143.5 91v8q-98 23 -140.5 87t-37.5 180l16 368q5 96 -28.5 134t-129.5 38h-51v174h78q95 0 164 -17t121 -55.5t74.5 -107t15.5 -166.5l-27 -364q-12 -166 139 -166h62v-211h-64q-75 0 -109.5 -42t-27.5 -134 l27 -359q7 -98 -17 -166.5t-76.5 -107t-122 -55.5t-163.5 -17h-74v174z" />
<glyph unicode="&#xa1;" horiz-adv-x="667" d="M164 918v333h342v-333h-342zM184 221l45 531h211l43 -531v-563h-299v563z" />
<glyph unicode="&#xa2;" horiz-adv-x="1220" d="M86 547q0 153 53 277.5t164.5 208t267.5 102.5v270h136v-268q96 -6 177.5 -38t134.5 -81t86.5 -105.5t43.5 -115.5l-293 -52q-26 70 -59 108.5t-90 51.5v-700q61 12 100 53.5t65 116.5l287 -45q-40 -149 -151.5 -246t-300.5 -113v-262h-136v262q-242 20 -363.5 173.5 t-121.5 402.5zM397 555q0 -160 44 -242t130 -106v694q-174 -49 -174 -346z" />
<glyph unicode="&#xa3;" horiz-adv-x="1351" d="M111 0v215q286 25 225 385l-4 25h-187v217h146l-29 145q-33 167 15.5 300t173 210.5t305.5 77.5q210 0 333 -107.5t148 -310.5l-281 -51q-24 111 -72 163t-141 52q-233 0 -180 -305l31 -174h364v-217h-327q44 -242 -133 -349v-8h733v-268h-1120z" />
<glyph unicode="&#xa4;" horiz-adv-x="1251" d="M117 340l180 178q-43 76 -43 172q0 94 39 168l-172 174l155 162l173 -176q77 41 174 41q95 0 172 -41l184 188l156 -162l-185 -188q41 -80 41 -166q0 -88 -43 -166l178 -176l-159 -164l-176 176q-80 -36 -168 -36q-92 0 -172 36l-177 -178zM442 690q0 -84 51 -135 t130 -51q78 0 130 52.5t52 133.5t-52 134t-130 53q-79 0 -130 -51.5t-51 -135.5z" />
<glyph unicode="&#xa5;" horiz-adv-x="1445" d="M94 1546h340l307 -569l289 569h324l-436 -768h391v-188h-420v-180h420v-189h-420v-221h-311v221h-443v189h443v180h-443v188h404z" />
<glyph unicode="&#xa7;" horiz-adv-x="1216" d="M109 766q0 87 35.5 145.5t115.5 106.5v4q-88 76 -88 221q0 148 121 243t323 95q211 0 322.5 -85.5t138.5 -227.5l-266 -37q-15 56 -64 99.5t-135 43.5q-79 0 -120 -28.5t-41 -77.5t28.5 -74.5t98.5 -40.5l262 -55q129 -28 204.5 -101.5t75.5 -191.5q0 -86 -34 -145.5 t-109 -106.5v-6q98 -81 98 -221q0 -163 -124.5 -261t-356.5 -98q-113 0 -201 25.5t-144.5 71t-89 103t-42.5 128.5l270 37q46 -148 215 -148q184 0 184 115q0 90 -112 111l-273 55q-133 28 -212.5 104t-79.5 197zM373 840q0 -56 37.5 -85.5t113.5 -45.5l205 -45l84 -21 q37 34 37 86q0 53 -35.5 83t-114.5 48l-198 43q-59 13 -92 25q-37 -40 -37 -88z" />
<glyph unicode="&#xa8;" horiz-adv-x="1024" d="M137 1292v289h285v-289h-285zM602 1292v289h285v-289h-285z" />
<glyph unicode="&#xa9;" horiz-adv-x="1826" d="M111 772q0 171 63 321.5t171 256t255.5 166.5t312.5 61q222 0 406.5 -103.5t291.5 -288.5t107 -413q0 -170 -63.5 -320t-172 -255.5t-257 -166.5t-312.5 -61q-166 0 -314.5 61t-255.5 166.5t-169.5 255.5t-62.5 320zM242 772q0 -147 52.5 -275t142 -217.5t213.5 -140.5 t263 -51q185 0 338.5 87t243.5 244.5t90 352.5t-90 353t-243.5 245.5t-338.5 87.5q-139 0 -263 -51.5t-213.5 -141.5t-142 -218t-52.5 -275zM477 776q0 102 29 189t84.5 153t142 104t195.5 38q85 0 156 -25t117.5 -66.5t75.5 -90t40 -99.5l-240 -41q-44 125 -159 125 q-89 0 -141 -72.5t-52 -206.5q0 -143 51 -212.5t144 -69.5q124 0 170 135l233 -37q-35 -133 -135.5 -214t-272.5 -81q-216 0 -327 126.5t-111 344.5z" />
<glyph unicode="&#xab;" horiz-adv-x="1126" d="M80 535l244 423h256l-226 -421l226 -428h-261zM518 535l244 423h256l-223 -421l223 -428h-260z" />
<glyph unicode="&#xad;" horiz-adv-x="903" d="M106 479v271h693v-271h-693z" />
<glyph unicode="&#xae;" horiz-adv-x="952" d="M53 1149q0 177 123 299.5t301 122.5q177 0 299.5 -122.5t122.5 -299.5t-122.5 -299.5t-299.5 -122.5q-178 0 -301 122.5t-123 299.5zM125 1149q0 -147 103 -251.5t249 -104.5t248 104.5t102 251.5t-102 251.5t-248 104.5t-249 -104.5t-103 -251.5zM301 924v460h180 q83 0 132 -35.5t49 -105.5q0 -91 -93 -125l105 -194h-117l-90 170h-59v-170h-107zM408 1176h61q82 0 82 61q0 66 -78 66h-65v-127z" />
<glyph unicode="&#xb4;" horiz-adv-x="1024" d="M250 1251l199 342h329l-286 -342h-242z" />
<glyph unicode="&#xbb;" horiz-adv-x="1126" d="M109 109l225 421l-225 428h262l237 -426l-241 -423h-258zM547 109l225 421l-225 428h262l238 -426l-242 -423h-258z" />
<glyph unicode="&#xbf;" horiz-adv-x="1163" d="M33 72q0 74 16.5 132t53.5 107t77.5 85t108.5 85q105 77 133.5 111.5t28.5 97.5v62h278l2 -95q2 -78 -18 -131t-57 -90.5t-115 -93.5q-112 -80 -152.5 -130.5t-40.5 -127.5q0 -81 58 -129.5t161 -48.5q118 0 180.5 60t86.5 181l292 -47q-10 -90 -50.5 -170t-108.5 -145 t-173 -103t-233 -38q-254 0 -391 114t-137 314zM420 918v333h342v-333h-342z" />
<glyph unicode="&#xc0;" horiz-adv-x="1562" d="M41 0l543 1546h393l545 -1546h-332l-121 358h-590l-121 -358h-317zM391 1939h342l182 -290h-249zM569 625h410l-131 389q-23 67 -47 162l-19 73h-18l-19 -71q-4 -14 -12 -45.5t-16 -62t-17 -56.5z" />
<glyph unicode="&#xc6;" horiz-adv-x="2025" d="M31 0l643 1546h1220v-278h-632v-361h540v-262h-540v-366h665v-279h-985v358h-442l-146 -358h-323zM606 616h336v652h-94q-3 -12 -7 -27t-10 -35t-10 -32q-35 -116 -90 -248z" />
<glyph unicode="&#xc7;" horiz-adv-x="1568" d="M100 762q0 179 53 330.5t148 258.5t232 166.5t301 59.5q137 0 251 -35.5t193.5 -98t131.5 -144t75 -177.5l-314 -63q-93 246 -340 246q-178 0 -283.5 -136.5t-105.5 -392.5q0 -265 107.5 -401.5t281.5 -136.5q77 0 139 22.5t103 62.5t67.5 87t41.5 102l323 -63 q-24 -96 -73.5 -178.5t-128.5 -152.5t-200 -110.5t-272 -40.5h-4l-39 -73l7 -5q46 11 90 11q81 0 133.5 -47.5t52.5 -131.5q0 -91 -67 -143.5t-181 -52.5q-79 0 -135.5 20.5t-107.5 67.5l92 90q69 -53 137 -53q82 0 82 63q0 31 -19 48.5t-51 17.5q-39 0 -76 -21l-106 60 l78 155q-296 35 -456.5 239.5t-160.5 549.5z" />
<glyph unicode="&#xc8;" horiz-adv-x="1331" d="M168 0v1546h1032v-278h-708v-357h616v-272h-616v-360h741v-279h-1065zM326 1939h342l182 -290h-250z" />
<glyph unicode="&#xc9;" horiz-adv-x="1331" d="M168 0v1546h1032v-278h-708v-357h616v-272h-616v-360h741v-279h-1065zM567 1649l183 290h342l-275 -290h-250z" />
<glyph unicode="&#xca;" horiz-adv-x="1331" d="M168 0v1546h1032v-278h-708v-357h616v-272h-616v-360h741v-279h-1065zM377 1632v215l328 123l327 -123v-219l-330 117z" />
<glyph unicode="&#xcb;" horiz-adv-x="1331" d="M168 0v1546h1032v-278h-708v-357h616v-272h-616v-360h741v-279h-1065zM319 1661v287h287v-287h-287zM791 1661v287h286v-287h-286z" />
<glyph unicode="&#xcf;" horiz-adv-x="661" d="M-2 1661v287h278v-287h-278zM168 0v1546h326v-1546h-326zM385 1661v287h279v-287h-279z" />
<glyph unicode="&#xd1;" horiz-adv-x="1628" d="M168 0v1546h360l545 -891q23 -39 55 -110l23 -51h8v1052h301v-1546h-344l-557 905q-42 69 -59 113l-21 51h-8v-1069h-303zM451 1649q4 147 69 225t182 78q53 0 112.5 -21t110.5 -42t85 -21q42 0 66 24t24 66h180q-5 -146 -66 -225.5t-182 -79.5q-53 0 -114.5 22 t-114.5 44t-84 22q-89 0 -92 -92h-176z" />
<glyph unicode="&#xd4;" horiz-adv-x="1669" d="M100 772q0 243 89.5 425t256.5 281t390 99q342 0 537.5 -216t195.5 -589q0 -369 -199.5 -587t-538.5 -218q-342 0 -536.5 216t-194.5 589zM442 772q0 -263 106 -397.5t286 -134.5t286.5 134.5t106.5 397.5q0 266 -106 399.5t-287 133.5q-180 0 -286 -135t-106 -398z M506 1632v215l328 123l327 -123v-219l-330 117z" />
<glyph unicode="&#xd6;" horiz-adv-x="1669" d="M100 772q0 243 89.5 425t256.5 281t390 99q342 0 537.5 -216t195.5 -589q0 -369 -199.5 -587t-538.5 -218q-342 0 -536.5 216t-194.5 589zM442 772q0 -263 106 -397.5t286 -134.5t286.5 134.5t106.5 397.5q0 266 -106 399.5t-287 133.5q-180 0 -286 -135t-106 -398z M455 1661v287h286v-287h-286zM926 1661v287h286v-287h-286z" />
<glyph unicode="&#xe0;" horiz-adv-x="1251" d="M86 309q0 91 35.5 158.5t89.5 105.5t133 61.5t149.5 30.5t155.5 7q27 0 79 -2t79 -2q0 60 -6.5 97.5t-26 70.5t-58.5 48t-100 15q-164 0 -196 -137l-293 61q18 82 69 145t121 99.5t148 55t160 18.5q241 0 363 -109.5t122 -347.5q0 -45 -0.5 -165t-0.5 -183t2.5 -159.5 t8.5 -176.5h-295l-8 143q-62 -92 -150 -131t-208 -39q-159 0 -266 90t-107 246zM270 1593h332l186 -342h-242zM397 328q0 -64 46 -99.5t112 -35.5q118 0 186 74.5t68 193.5v20q-24 0 -70.5 1t-70.5 1q-51 0 -90 -4.5t-84.5 -19t-71 -47.5t-25.5 -84z" />
<glyph unicode="&#xe6;" horiz-adv-x="1949" d="M86 309q0 357 553 357h168v47q0 92 -43.5 139t-147.5 47q-164 0 -196 -137l-293 61q13 59 48 112.5t93 101t150.5 76t206.5 28.5q131 0 217.5 -37.5t142.5 -112.5q135 148 369 148q264 0 398.5 -177.5t129.5 -492.5h-784q1 -116 73 -188t185 -72q83 0 138 31.5t99 99.5 l256 -82q-57 -131 -184.5 -210t-316.5 -79q-154 0 -265.5 56.5t-175.5 158.5q-142 -215 -432 -215q-167 0 -278 96.5t-111 243.5zM399 330q0 -63 43 -102.5t111 -39.5q117 0 187.5 78t70.5 195v14h-41q-12 0 -38 1t-38 1q-159 0 -227 -36t-68 -111zM1098 674h467 q-6 110 -66.5 174.5t-163.5 64.5t-164.5 -65.5t-72.5 -173.5z" />
<glyph unicode="&#xe7;" horiz-adv-x="1216" d="M86 547q0 99 22.5 187.5t69.5 162.5t114 128t160.5 84t204.5 30q107 0 197.5 -30.5t150.5 -81t97 -112t47 -127.5l-305 -51q-23 75 -68.5 117.5t-132.5 42.5q-112 0 -176 -88.5t-64 -253.5q0 -172 64 -258t178 -86q159 0 215 172l299 -47q-43 -165 -170 -266t-338 -101 l-43 -75l6 -5q46 11 91 11q81 0 133.5 -47.5t52.5 -131.5q0 -91 -67 -143.5t-181 -52.5q-80 0 -136.5 20.5t-107.5 67.5l93 90q69 -53 137 -53q82 0 82 63q0 31 -19 48.5t-51 17.5q-39 0 -76 -21l-106 60l80 157q-225 28 -339 179.5t-114 392.5z" />
<glyph unicode="&#xe8;" horiz-adv-x="1247" d="M86 553q0 169 65.5 301t194 208.5t301.5 76.5q269 0 404.5 -176.5t130.5 -491.5h-789q8 -117 79 -189.5t181 -72.5q83 0 138.5 31.5t99.5 99.5l258 -82q-57 -131 -185.5 -210t-320.5 -79q-248 0 -402.5 160t-154.5 424zM279 1593h331l187 -342h-242zM395 674h467 q-6 111 -65 175t-162 64q-105 0 -167 -65.5t-73 -173.5z" />
<glyph unicode="&#xe9;" horiz-adv-x="1247" d="M86 553q0 169 65.5 301t194 208.5t301.5 76.5q269 0 404.5 -176.5t130.5 -491.5h-789q8 -117 79 -189.5t181 -72.5q83 0 138.5 31.5t99.5 99.5l258 -82q-57 -131 -185.5 -210t-320.5 -79q-248 0 -402.5 160t-154.5 424zM395 674h467q-6 111 -65 175t-162 64 q-105 0 -167 -65.5t-73 -173.5zM508 1251l199 342h329l-286 -342h-242z" />
<glyph unicode="&#xea;" horiz-adv-x="1247" d="M86 553q0 169 65.5 301t194 208.5t301.5 76.5q269 0 404.5 -176.5t130.5 -491.5h-789q8 -117 79 -189.5t181 -72.5q83 0 138.5 31.5t99.5 99.5l258 -82q-57 -131 -185.5 -210t-320.5 -79q-248 0 -402.5 160t-154.5 424zM322 1233v223l327 150l328 -150v-225l-328 141z M395 674h467q-6 111 -65 175t-162 64q-105 0 -167 -65.5t-73 -173.5z" />
<glyph unicode="&#xeb;" horiz-adv-x="1247" d="M86 553q0 169 65.5 301t194 208.5t301.5 76.5q269 0 404.5 -176.5t130.5 -491.5h-789q8 -117 79 -189.5t181 -72.5q83 0 138.5 31.5t99.5 99.5l258 -82q-57 -131 -185.5 -210t-320.5 -79q-248 0 -402.5 160t-154.5 424zM274 1292v289h285v-289h-285zM395 674h467 q-6 111 -65 175t-162 64q-105 0 -167 -65.5t-73 -173.5zM739 1292v289h285v-289h-285z" />
<glyph unicode="&#xef;" horiz-adv-x="616" d="M-25 1292v289h287v-289h-287zM152 0v1110h315v-1110h-315zM350 1292v289h285v-289h-285z" />
<glyph unicode="&#xf1;" horiz-adv-x="1333" d="M152 0v1110h294v-180q116 205 357 205q196 0 292.5 -115.5t96.5 -312.5v-707h-315v647q0 67 -17 115t-46.5 72t-61 34.5t-68.5 10.5q-44 0 -80.5 -13t-68.5 -42.5t-50 -85t-18 -132.5v-606h-315zM291 1262q4 147 69 225t182 78q53 0 112.5 -21t110.5 -42t85 -21 q90 0 90 90h180q-5 -146 -66 -225.5t-182 -79.5q-53 0 -114.5 22t-114.5 44t-84 22q-89 0 -92 -92h-176z" />
<glyph unicode="&#xf4;" horiz-adv-x="1302" d="M86 555q0 169 65 299.5t196 207.5t310 77q180 0 308.5 -77t191 -207.5t62.5 -299.5q0 -168 -66 -299.5t-197.5 -209t-310.5 -77.5q-267 0 -413 162t-146 424zM326 1233v223l327 150l328 -150v-225l-328 141zM403 555q0 -161 62.5 -252.5t187.5 -91.5q124 0 185 91.5 t61 252.5q0 160 -62 252t-186 92q-125 0 -186.5 -92t-61.5 -252z" />
<glyph unicode="&#xf6;" horiz-adv-x="1302" d="M86 555q0 169 65 299.5t196 207.5t310 77q180 0 308.5 -77t191 -207.5t62.5 -299.5q0 -168 -66 -299.5t-197.5 -209t-310.5 -77.5q-267 0 -413 162t-146 424zM276 1292v289h285v-289h-285zM403 555q0 -161 62.5 -252.5t187.5 -91.5q124 0 185 91.5t61 252.5 q0 160 -62 252t-186 92q-125 0 -186.5 -92t-61.5 -252zM741 1292v289h285v-289h-285z" />
<glyph unicode="&#x152;" horiz-adv-x="2371" d="M100 772q0 367 194 583t527 216q256 0 406 -164v139h1014v-278h-703v-361h610v-262h-610v-366h733v-279h-1042v150q-151 -179 -428 -179q-317 0 -509 216.5t-192 584.5zM440 770q0 -262 106.5 -398t287.5 -136t287 136t106 400q0 268 -105.5 403.5t-287.5 135.5 q-179 0 -286.5 -139.5t-107.5 -401.5z" />
<glyph unicode="&#x153;" horiz-adv-x="2037" d="M86 555q0 169 64 299.5t194.5 207.5t312.5 77q267 0 390 -197h4q68 99 161.5 148t225.5 49q139 0 243.5 -47.5t168.5 -136t93 -210.5t23 -274h-774q5 -119 70 -190.5t174 -71.5q87 0 137 31t88 96l274 -70q-57 -138 -182.5 -217.5t-320.5 -79.5q-277 0 -388 178h-4 q-129 -178 -395 -178q-267 0 -413 162t-146 424zM406 555q0 -161 61 -252.5t186 -91.5q123 0 183.5 91t60.5 253q0 160 -61.5 251t-184.5 91q-125 0 -185 -90.5t-60 -251.5zM1194 668h461q-5 113 -63.5 179t-164.5 66q-105 0 -165 -68t-68 -177z" />
<glyph unicode="&#x2c6;" horiz-adv-x="1011" d="M178 1233v223l328 150l328 -150v-225l-328 141z" />
<glyph unicode="&#x2dc;" horiz-adv-x="1024" d="M109 1262q4 147 69 225t182 78q53 0 112.5 -21t110.5 -42t85 -21q90 0 90 90h180q-5 -146 -66 -225.5t-182 -79.5q-53 0 -114.5 22t-114.5 44t-84 22q-89 0 -92 -92h-176z" />
<glyph unicode="&#x2000;" horiz-adv-x="985" />
<glyph unicode="&#x2001;" horiz-adv-x="1970" />
<glyph unicode="&#x2002;" horiz-adv-x="985" />
<glyph unicode="&#x2003;" horiz-adv-x="1970" />
<glyph unicode="&#x2004;" horiz-adv-x="656" />
<glyph unicode="&#x2005;" horiz-adv-x="492" />
<glyph unicode="&#x2006;" horiz-adv-x="328" />
<glyph unicode="&#x2007;" horiz-adv-x="328" />
<glyph unicode="&#x2008;" horiz-adv-x="246" />
<glyph unicode="&#x2009;" horiz-adv-x="394" />
<glyph unicode="&#x200a;" horiz-adv-x="109" />
<glyph unicode="&#x2010;" horiz-adv-x="903" d="M106 479v271h693v-271h-693z" />
<glyph unicode="&#x2011;" horiz-adv-x="903" d="M106 479v271h693v-271h-693z" />
<glyph unicode="&#x2012;" horiz-adv-x="903" d="M106 479v271h693v-271h-693z" />
<glyph unicode="&#x2013;" horiz-adv-x="1085" d="M61 504v219h963v-219h-963z" />
<glyph unicode="&#x2014;" horiz-adv-x="1904" d="M61 504v219h1782v-219h-1782z" />
<glyph unicode="&#x2018;" horiz-adv-x="520" d="M88 944v252q0 150 72.5 255t247.5 163l43 -121q-87 -39 -133 -88.5t-46 -126.5h158v-334h-342z" />
<glyph unicode="&#x2019;" horiz-adv-x="520" d="M70 997q87 39 132.5 88.5t45.5 126.5h-158v334h340v-254q0 -73 -15.5 -133t-51.5 -114.5t-99 -97.5t-153 -73z" />
<glyph unicode="&#x201c;" horiz-adv-x="1003" d="M88 944v252q0 150 72.5 255t247.5 163l43 -121q-87 -39 -133 -88.5t-46 -126.5h158v-334h-342zM573 944v252q0 150 72.5 255t247.5 163l43 -121q-87 -39 -132.5 -88.5t-45.5 -126.5h157v-334h-342z" />
<glyph unicode="&#x201d;" horiz-adv-x="1003" d="M70 997q87 39 132.5 88.5t45.5 126.5h-158v334h340v-254q0 -73 -15.5 -133t-51.5 -114.5t-99 -97.5t-153 -73zM555 997q87 39 132.5 88.5t45.5 126.5h-158v334h340v-254q0 -73 -15.5 -133t-51.5 -114.5t-99 -97.5t-153 -73z" />
<glyph unicode="&#x2022;" horiz-adv-x="798" d="M125 604q0 116 79.5 195.5t194.5 79.5q114 0 193.5 -80t79.5 -195t-79.5 -195.5t-193.5 -80.5q-115 0 -194.5 80t-79.5 196z" />
<glyph unicode="&#x202f;" horiz-adv-x="394" />
<glyph unicode="&#x2039;" d="M80 535l244 423h256l-226 -421l226 -428h-261z" />
<glyph unicode="&#x203a;" d="M109 109l225 421l-225 428h262l237 -426l-241 -423h-258z" />
<glyph unicode="&#x205f;" horiz-adv-x="492" />
<glyph unicode="&#x20ac;" horiz-adv-x="1472" d="M68 498v188h163q-2 25 -2 74q0 61 2 92h-163v188h188q56 257 209.5 395t386.5 138q227 0 363 -107t180 -299l-293 -71q-35 111 -94 168t-162 57q-111 0 -180 -64.5t-99 -216.5h400v-188h-418q-2 -23 -2 -72q0 -63 2 -94h418v-188h-396q31 -148 102.5 -213.5t180.5 -65.5 q102 0 165 56t99 171l283 -57q-49 -202 -187 -312t-372 -110q-244 0 -393 136t-197 395h-184z" />
<glyph unicode="&#x2122;" horiz-adv-x="1320" d="M35 1421v125h475v-125h-166v-487h-143v487h-166zM580 934v612h194l103 -286q8 -24 16 -54t10 -35q4 -20 4 -26h6q0 1 5 26q2 5 9 34t15 52l100 289h191v-612h-135v428h-6l-7 -35q-6 -37 -24 -90l-98 -303h-115l-105 305q-18 59 -24 88l-6 35h-6v-428h-127z" />
<glyph unicode="&#x25fc;" horiz-adv-x="1105" d="M0 0v1106h1106v-1106h-1106z" />
</font>
</defs>
</svg>
